<svg width="180" height="180" viewBox="0 0 180 180" fill="none" xmlns="http://www.w3.org/2000/svg">
<path d="M180 90C180 139.706 139.706 180 90 180C40.2944 180 0 139.706 0 90C0 40.2944 40.2944 0 90 0C139.706 0 180 40.2944 180 90Z" fill="white"/>
<path fill-rule="evenodd" clip-rule="evenodd" d="M177.569 69.1352C173.001 64.9917 166.966 62.4559 160.53 62.4793L160.523 62.4794C147.429 62.538 137.093 73.266 138.064 86.6258L138.065 86.6379L138.066 86.6501C138.195 88.3592 138.328 90.0701 138.463 91.7806L138.464 91.7806C138.898 97.2667 139.366 102.804 139.843 108.4L139.845 108.419L139.846 108.438C140.136 111.666 137.641 114.774 133.859 114.927C130.246 115.069 126.807 111.968 126.662 108.001L126.662 107.983L126.661 107.965C126.428 102.228 126.205 96.6095 126.002 91.0818L117.299 91.4009L126.002 91.0791C125.792 85.4149 125.606 79.8423 125.444 74.329L125.444 74.3114L125.443 74.2939C124.801 55.0127 109.319 39.4923 90.0149 39.4618L90.0011 39.4617L89.9874 39.4618C70.683 39.4923 55.2014 55.0127 54.559 74.2939L54.5584 74.3114L54.5579 74.3289C54.3965 79.8367 54.2077 85.4107 54.0004 91.0783C53.7953 96.6121 53.5741 102.231 53.3413 107.965L53.3406 107.983L53.34 108C53.1951 111.966 49.7557 115.069 46.1434 114.927C42.3624 114.774 39.8663 111.665 40.1559 108.438L40.1576 108.419L40.1592 108.4C40.6368 102.803 41.1049 97.2653 41.5389 91.7785L41.5368 91.7784C41.6721 90.0686 41.8054 88.3585 41.9343 86.6501L41.9352 86.6379L41.9361 86.6258C42.9068 73.2669 32.574 62.538 19.4775 62.4794L19.4702 62.4793C13.035 62.4559 6.99904 64.992 2.43077 69.136C11.8412 29.491 47.4766 0 90 0C132.523 0 168.158 29.4906 177.569 69.1352ZM178.456 106.688L173.835 107.295C172.334 107.492 170.957 106.435 170.759 104.934L170.491 102.906L170.49 102.9L170.49 102.897C169.777 97.5014 169.061 92.0825 168.395 86.685C167.917 83.0719 164.355 79.9106 160.597 79.9223C157.374 79.9385 155.244 82.305 155.46 85.3521C155.587 87.0276 155.718 88.7105 155.852 90.4029L155.852 90.4028C156.281 95.8266 156.745 101.313 157.222 106.9C158.409 120.263 148.082 131.814 134.556 132.356L134.553 132.357L134.551 132.357C120.855 132.899 109.723 121.815 109.232 108.657C108.999 102.919 108.775 97.2797 108.571 91.7237L105.273 82.4426L105.274 82.4777C105.342 85.8749 102.637 88.6736 99.2242 88.6804C95.8109 88.6873 93.0397 85.8955 93.0306 82.4959C93.0237 79.0942 95.7333 76.3663 99.0871 76.3617C101.062 76.3617 102.834 77.3059 103.97 78.7766L96.6692 58.228L96.6695 58.2282L103.972 78.7782C104.756 79.7938 105.237 81.0603 105.273 82.4404L108.571 91.721C108.36 86.0244 108.172 80.4141 108.009 74.8588C107.747 67.159 103.073 60.8584 96.6695 58.2282L90.0011 39.4617L96.6692 58.228C94.5973 57.3771 92.3443 56.9103 90.0011 56.9048C80.4161 56.9274 72.3406 64.6675 71.9929 74.8589C71.8301 80.4147 71.6399 86.0276 71.4317 91.7202L62.7154 91.4014L71.4315 91.7245C71.2256 97.2795 71.0038 102.914 70.7707 108.657C70.2796 121.812 59.1488 132.899 45.4512 132.357L45.4465 132.356C31.923 131.814 21.5935 120.264 22.7807 106.9C23.2574 101.314 23.721 95.8284 24.15 90.4055L24.1479 90.4053C24.2818 88.7121 24.4131 87.0285 24.5396 85.3521C24.7563 82.304 22.627 79.9385 19.403 79.9223C15.647 79.9106 12.0833 83.0726 11.6048 86.6851C10.9381 92.0901 10.2209 97.5193 9.50676 102.925L9.50668 102.926L9.24144 104.934C9.04334 106.435 7.66649 107.492 6.16527 107.295L1.54428 106.688C9.3689 148.42 45.9966 180 90 180C134.004 180 170.631 148.42 178.456 106.688ZM86.9101 82.4937C86.9192 79.0919 84.2599 76.3663 80.9723 76.3617L80.9701 76.3595C77.6825 76.3572 74.9684 79.0782 74.9021 82.4754C74.8336 85.8726 77.4883 88.6713 80.8353 88.6781C84.1822 88.685 86.9009 85.8955 86.9101 82.4937Z" fill="#D61930"/>
</svg>
