<svg xmlns="http://www.w3.org/2000/svg" width="165" height="41" viewBox="0 0 165 41" fill="none">
<g clip-path="url(#clip0_1241_4974)">
<path d="M39.9481 20.4509C39.9481 31.4911 31.0054 40.4409 19.974 40.4409C8.94268 40.4409 0 31.4911 0 20.4509C0 9.41076 8.94268 0.460938 19.974 0.460938C31.0054 0.460938 39.9481 9.41076 39.9481 20.4509Z" fill="white"/>
<path fill-rule="evenodd" clip-rule="evenodd" d="M39.4086 15.8166C38.3949 14.8963 37.0554 14.3331 35.627 14.3383H35.6254C32.7195 14.3513 30.4256 16.7341 30.6411 19.7015L30.6413 19.7041L30.6415 19.7069C30.6701 20.0865 30.6997 20.4665 30.7297 20.8464H30.7298C30.8261 22.0649 30.93 23.2948 31.036 24.5378L31.0363 24.542L31.0367 24.5462C31.101 25.2631 30.5472 25.9535 29.7079 25.9875C28.906 26.019 28.1429 25.3302 28.1106 24.449L28.1105 24.4451L28.1104 24.4412C28.0587 23.1668 28.0091 21.919 27.9642 20.6912L26.0298 20.7622L27.9642 20.6906C27.9176 19.4325 27.8762 18.1948 27.8404 16.9702L27.8402 16.9663L27.8401 16.9624C27.6976 12.6799 24.2617 9.23259 19.9774 9.22581H19.9744H19.9713C15.687 9.23259 12.2511 12.6799 12.1086 16.9624L12.1084 16.9663L12.1083 16.9702C12.0724 18.1935 12.0305 19.4316 11.9846 20.6905C11.939 21.9195 11.89 23.1675 11.8383 24.4412L11.8382 24.4451L11.838 24.449C11.8058 25.3298 11.0425 26.0189 10.2408 25.9875C9.40166 25.9536 8.84772 25.2629 8.91198 24.5462L8.91236 24.542L8.91272 24.5378C9.01873 23.2946 9.12261 22.0646 9.21894 20.8459H9.21848C9.24852 20.4661 9.27811 20.0863 9.3067 19.7069L9.30688 19.7041L9.30707 19.7015C9.52247 16.7343 7.22933 14.3513 4.32275 14.3383H4.32114C2.89296 14.3331 1.55338 14.8964 0.539519 15.8167C2.62802 7.01121 10.5367 0.460938 19.9741 0.460938C29.4114 0.460938 37.3201 7.01111 39.4086 15.8166ZM39.6054 24.1575L38.5798 24.2924C38.2467 24.3362 37.9411 24.1014 37.8971 23.768L37.8624 23.5048L37.8476 23.3924L37.8376 23.3175V23.3173V23.3172V23.317L37.8375 23.3165C37.6793 22.1177 37.5203 20.9138 37.3726 19.7146C37.2664 18.9121 36.4759 18.2099 35.6419 18.2126C34.9267 18.2161 34.4539 18.7418 34.502 19.4186C34.53 19.7907 34.5592 20.1645 34.5888 20.5404C34.6841 21.745 34.7869 22.9637 34.8928 24.2047C35.1562 27.1726 32.8646 29.7382 29.8625 29.8588H29.862H29.8615C26.8217 29.9792 24.3513 27.5174 24.2422 24.5949C24.1905 23.3201 24.1408 22.0674 24.0955 20.8331C24.0488 19.5679 24.0071 18.3218 23.971 17.0879C23.8938 14.8243 22.1016 13.1051 19.9744 13.1001C17.8471 13.1051 16.0548 14.8243 15.9777 17.0879C15.9416 18.3219 15.8993 19.5686 15.8531 20.833L13.9216 20.7623L15.8531 20.834C15.8074 22.0678 15.7581 23.3193 15.7064 24.5947C15.5974 27.5166 13.1272 29.9792 10.0872 29.8588H10.0861C7.08485 29.7382 4.79238 27.1729 5.05585 24.2047C5.16166 22.9639 5.26453 21.7455 5.35975 20.5409H5.35928C5.389 20.1649 5.41813 19.7909 5.44621 19.4186C5.49431 18.7416 5.02173 18.2161 4.30624 18.2126C3.47265 18.2099 2.68174 18.9122 2.57555 19.7146C2.42759 20.9151 2.26843 22.1209 2.10994 23.3215L2.10992 23.3216L2.1099 23.3219L2.10978 23.3228C2.09018 23.4712 2.07059 23.6197 2.05104 23.768C2.00707 24.1014 1.7015 24.3362 1.36833 24.2924L0.342773 24.1575C2.07931 33.4267 10.2082 40.4409 19.9741 40.4409C29.74 40.4409 37.8689 33.4267 39.6054 24.1575ZM21.9908 17.4217C22.7346 17.4217 23.3486 18.0256 23.3638 18.7801C23.379 19.5347 22.7788 20.1562 22.0212 20.1578C21.2637 20.1593 20.6487 19.5392 20.6466 18.7842C20.6452 18.0286 21.2465 17.4228 21.9908 17.4217ZM19.2883 18.7837C19.2903 18.0281 18.7001 17.4228 17.9705 17.4217L17.97 17.4212C17.2404 17.4207 16.6381 18.025 16.6233 18.7796C16.6081 19.5342 17.1973 20.1558 17.9401 20.1573C18.6829 20.1588 19.2863 19.5392 19.2883 18.7837Z" fill="#D61930"/>
<path d="M157.789 32.8649L151.694 23.8232L157.753 15.4274H163.883L156.57 24.8638L156.749 22.6034L164.242 32.8649H157.789ZM146.64 32.8649V6.81641H152.124V32.8649H146.64Z" fill="white"/>
<path d="M137.99 32.8655V22.9269C137.99 22.0179 137.704 21.2884 137.13 20.7382C136.58 20.1642 135.875 19.8772 135.015 19.8772C134.417 19.8772 133.892 20.0087 133.437 20.2718C132.983 20.511 132.625 20.8698 132.362 21.3482C132.099 21.8026 131.968 22.3289 131.968 22.9269L129.852 21.8864C129.852 20.523 130.151 19.327 130.749 18.2984C131.346 17.2699 132.171 16.4805 133.222 15.9304C134.298 15.3564 135.505 15.0693 136.843 15.0693C138.134 15.0693 139.269 15.3802 140.249 16.0022C141.252 16.6002 142.042 17.4015 142.615 18.4061C143.189 19.4107 143.476 20.511 143.476 21.707V32.8655H137.99ZM126.482 32.8655V15.4281H131.968V32.8655H126.482Z" fill="white"/>
<path d="M117.492 32.8652V15.4277H122.978V32.8652H117.492ZM120.253 13.0238C119.392 13.0238 118.676 12.7368 118.102 12.1628C117.552 11.5648 117.277 10.8471 117.277 10.01C117.277 9.14886 117.552 8.43126 118.102 7.8572C118.676 7.28313 119.392 6.99609 120.253 6.99609C121.113 6.99609 121.819 7.28313 122.368 7.8572C122.917 8.43126 123.192 9.14886 123.192 10.01C123.192 10.8471 122.917 11.5648 122.368 12.1628C121.819 12.7368 121.113 13.0238 120.253 13.0238Z" fill="white"/>
<path d="M98.2568 32.8651V7.53418H103.886V32.8651H98.2568ZM102.595 32.8651V27.9137H115.107V32.8651H102.595Z" fill="white"/>
<path d="M89.6925 32.8649L83.5979 23.8232L89.6567 15.4274H95.7871L88.4736 24.8638L88.6529 22.6034L96.1458 32.8649H89.6925ZM78.543 32.8649V6.81641H84.0282V32.8649H78.543Z" fill="white"/>
<path d="M69.8928 32.8655V22.9269C69.8928 22.0179 69.6061 21.2884 69.0324 20.7382C68.4827 20.1642 67.7776 19.8772 66.9173 19.8772C66.3198 19.8772 65.7939 20.0087 65.3398 20.2718C64.8857 20.511 64.5272 20.8698 64.2643 21.3482C64.0013 21.8026 63.87 22.3289 63.87 22.9269L61.7547 21.8864C61.7547 20.523 62.0534 19.327 62.651 18.2984C63.2485 17.2699 64.0731 16.4805 65.1247 15.9304C66.2002 15.3564 67.4072 15.0693 68.7456 15.0693C70.0362 15.0693 71.1715 15.3802 72.1514 16.0022C73.1553 16.6002 73.944 17.4015 74.5176 18.4061C75.0912 19.4107 75.378 20.511 75.378 21.707V32.8655H69.8928ZM58.3848 32.8655V15.4281H63.87V32.8655H58.3848Z" fill="white"/>
<path d="M48.7422 32.8651V7.53418H54.3708V32.8651H48.7422Z" fill="white"/>
</g>
<defs>
<clipPath id="clip0_1241_4974">
<rect width="164.242" height="40" fill="white" transform="translate(0 0.460938)"/>
</clipPath>
</defs>
</svg>